<svg enable-background="new 0 0 1017.3 639.5" viewBox="0 0 1017.3 639.5" xmlns="http://www.w3.org/2000/svg"><circle cx="319.8" cy="319.8" fill="#8bc5ff" r="319.8"/><circle cx="697.5" cy="319.8" fill="#ff43ae" r="319.8"/><path d="m377.7 319.8c0 106 51.6 199.9 131 258.1 79.4-58.2 130.9-152.1 130.9-258.1s-51.6-199.9-130.9-258.1c-79.4 58.2-131 152.1-131 258.1z" fill="#c834e3"/><g fill="#fff"><path d="m527.8 134.2c-29.1 14.3-53.5 37-70.2 64.8-2.3 3.8 1.5 8.5 5.6 7.3 20.3-5.5 40.6-10.9 60.9-16.4 4.2-1.1 8.5-2.8 12.8-3.2 2.7-.3 6.5-.6 5.4 2.9-1.1 3.6-3.9 7.3-5.9 10.4s-4.1 6.2-6.3 9.1c-18.3 24.9-42.9 46.3-50.9 77.2-1.3 5.2 4.6 7.9 8.4 4.9 18.8-15.4 40.1-27.7 62.8-36.4-1.9-2.4-3.8-4.9-5.6-7.3-9.4 18.2-18.8 36.4-28.2 54.6-4.9 9.4-9.7 18.8-14.6 28.2-3.2 6.2-7.2 12.6-6.6 20 .4 5.2 5.6 12.4 11.6 9.4 3.7-1.9 7.2-6.2 10.5-8.9 3.8-3.1 7.7-6.2 11.6-9.2 14.7-11.1 30.3-21 46.5-29.7-2.4-1.9-4.9-3.8-7.3-5.6-8 43.1-43.1 77.1-43.6 122.2-.1 4.2 5.6 6.7 8.5 3.5 12.1-13.1 25.8-24.5 41-34-2.3-2.3-4.6-4.6-6.8-6.8-12.8 24.6-23.4 50.4-31.5 77-1.9 6.2 7.8 8.8 9.6 2.7 7.9-25.8 18-50.7 30.5-74.6 2.2-4.2-2.4-9.6-6.8-6.8-15.8 9.9-30.3 21.8-43 35.5 2.8 1.2 5.7 2.4 8.5 3.5.5-43.7 35.4-77.5 43.3-119.5.8-4.3-3.3-7.8-7.3-5.6-25 13.4-48.3 29.8-69.6 48.6 1.6-.4 3.2-.9 4.9-1.3-3.5-1.1 5.7-16.8 6.6-18.7 4.6-8.8 9.1-17.6 13.7-26.4 9.1-17.6 18.2-35.2 27.3-52.8 1.8-3.5-1.3-9-5.6-7.3-24.4 9.3-47 22.4-67.3 38.9 2.8 1.6 5.6 3.2 8.4 4.9 7-27 27.9-46.7 44.6-67.9 4.2-5.4 8.3-10.9 12-16.7 3.3-5.2 8.3-12 7.1-18.5-2.8-14.9-22.9-7.9-32-5.5-20 5.4-40 10.7-60 16.1 1.9 2.4 3.8 4.9 5.6 7.3 15.9-26.4 39-47.6 66.6-61.2 5.6-2.9.6-11.5-5.2-8.7z"/><path d="m108.9 313.1c-3.1 12.6-14 21-26.9 21-16.7 0-28.1-13.3-28.1-27.7 0-13.6 10.5-27.6 27.9-27.6 16.7 0 25.6 12.9 27.1 21.2h-14.3c-1.5-4-5.5-9.3-12.9-9.3-9.1 0-14.3 8-14.3 15.6 0 8.1 5.5 15.8 14.3 15.8 8.5 0 12-7.1 12.8-9z"/><path d="m115.4 279.8h12v53.2h-12z"/><path d="m148 288.8h-12v-9.1h12zm0 44.2h-12v-40h12z"/><path d="m157 302.2h-4.5v-9.1h4.5v-2.1c0-11.2 9.4-12.2 15.3-12.2h1.7v9h-1.4c-1 0-3.7.4-3.7 3.7v1.6h5v9.1h-5v30.8h-12z"/><path d="m178.6 302.2h-4.5v-9.1h4.5v-2.1c0-11.2 9.4-12.2 15.3-12.2h1.7v9h-1.4c-1 0-3.7.4-3.7 3.7v1.6h5v9.1h-5v30.8h-12z"/><path d="m217.7 304.3c-.1-.9-.2-3-3.7-3-2.5 0-3.4 1.6-3.4 2.7 0 2.2 3 3.4 6.1 4.3 6.8 1.9 14 3.9 14 12.5 0 8.4-7.4 13.6-16.3 13.6-6 0-15.2-2.7-16.3-13.2h11.9c.5 3.7 4 3.7 4.5 3.7 2 0 4.2-1.2 4.2-3.1 0-3.1-3-3.5-10.6-6.4-5.2-1.7-9.5-5-9.5-10.4 0-7.9 7.2-13.2 15.5-13.2 5.3 0 14.3 2.1 15.3 12.6h-11.7z"/><path d="m237.2 279.8h11.7l20.6 33.5.1-.1-.6-33.3h13v53.1h-11.8l-20.2-32.4-.1.1.4 32.3h-13z"/><path d="m311 291.8c14.5 0 21.5 11.4 21.5 21.2s-7 21.2-21.5 21.2-21.5-11.4-21.5-21.2 6.9-21.2 21.5-21.2zm0 31.3c5.2 0 9.6-4.2 9.6-10.1 0-5.8-4.4-10.1-9.6-10.1s-9.6 4.2-9.6 10.1 4.4 10.1 9.6 10.1z"/><path d="m353.6 293.1h5.8v9.1h-5.8v30.8h-12v-30.9h-5.9v-9.1h5.9v-13.3h12z"/><path d="m403.1 320.5c-1.9 4.5-4.8 7.9-8.1 10.2-3.3 2.4-7.3 3.6-11.4 3.6-11.4 0-21.2-9.3-21.2-21.2 0-11.2 8.8-21.5 21-21.5s21.1 9.6 21.1 21.8c0 1.6-.1 2.2-.3 3.2h-30c.7 4.8 4.7 7.6 9.4 7.6 3.7 0 5.6-1.7 7.3-3.7zm-10.6-11.9c-.5-2.4-2.9-6.8-9.1-6.8s-8.6 4.5-9.1 6.8z"/><path d="m428 304.3c-.1-.9-.2-3-3.7-3-2.5 0-3.4 1.6-3.4 2.7 0 2.2 3 3.4 6.1 4.3 6.8 1.9 14 3.9 14 12.5 0 8.4-7.4 13.6-16.3 13.6-6 0-15.2-2.7-16.3-13.2h11.9c.5 3.7 4 3.7 4.5 3.7 2 0 4.2-1.2 4.2-3.1 0-3.1-3-3.5-10.6-6.4-5.2-1.7-9.5-5-9.5-10.4 0-7.9 7.2-13.2 15.5-13.2 5.3 0 14.3 2.1 15.3 12.6h-11.7z"/><path d="m619.2 279.8 7.1 34.6h.1l7.8-34.6h10.4l7.7 34.8h.1l7.3-34.8h13.8l-14 53.2h-12l-8-34.5h-.1l-8 34.5h-12.3l-13.8-53.3z"/><path d="m690.4 288.8h-12v-9.1h12zm0 44.2h-12v-40h12z"/><path d="m699.4 279.8h12v27.8h.1l11.1-14.5h14.2l-15 17.6 14.6 22.4h-13.5l-11.3-19.2h-.1v19.1h-12z"/><path d="m753.5 288.8h-12v-9.1h12zm0 44.2h-12v-40h12z"/><path d="m762.2 293.1h11.2v4.4h.1.1c2.4-3 6.3-5.8 12.5-5.8 14.2 0 19.5 12.5 19.5 21.7 0 11.5-8.1 21-19.4 21-7.2 0-10.6-3.5-12-5v16.9h-12zm31.4 20c0-4.8-3.5-10.2-10-10.2-6.6 0-10 5.5-10 10.2 0 5 3.7 10.2 10 10.2s10-5.2 10-10.2z"/><path d="m850.9 320.5c-1.9 4.5-4.8 7.9-8.1 10.2-3.3 2.4-7.3 3.6-11.4 3.6-11.4 0-21.2-9.3-21.2-21.2 0-11.2 8.8-21.5 21-21.5s21.1 9.6 21.1 21.8c0 1.6-.1 2.2-.3 3.2h-30c.7 4.8 4.7 7.6 9.4 7.6 3.7 0 5.6-1.7 7.3-3.7zm-10.6-11.9c-.5-2.4-2.9-6.8-9.1-6.8s-8.6 4.5-9.1 6.8z"/><path d="m900.5 333h-11.4v-4.3h-.1c-1 1.7-3.9 5.6-12 5.6-12.1 0-20-9.4-20-21.4 0-13.5 9.6-21.2 19.8-21.2 7.1 0 10.4 3.5 11.7 4.8v-16.7h12zm-21.6-9.8c7.5 0 10.2-6.1 10.2-10.3 0-4.8-3.5-10-10.1-10-6.9 0-10.2 5.4-10.2 10 .1 6.2 4.5 10.3 10.1 10.3z"/><path d="m921.1 288.8h-12v-9.1h12zm0 44.2h-12v-40h12z"/><path d="m971.7 333h-12v-4.3h-.1c-2 3.9-7 5.7-11.7 5.7-12.7 0-20.1-9.9-20.1-21.4 0-13.1 9.4-21.3 20.1-21.3 6.6 0 10.2 3.2 11.7 5.6h.1v-4.2h12zm-22-9.7c7.5 0 10-6.3 10-10.2 0-4.8-3.3-10.2-10.1-10.2s-9.9 5.8-9.9 10.3c.1 3.7 2.8 10.1 10 10.1z"/></g></svg>