<svg enable-background="new 0 0 1022.6 639.5" viewBox="0 0 1022.6 639.5" xmlns="http://www.w3.org/2000/svg"><circle cx="319.8" cy="319.8" fill="#c834e3" r="319.8"/><circle cx="697.5" cy="319.8" fill="#ff7e2c" r="319.8"/><path d="m377.8 319.8c0 105.9 51.5 199.8 130.9 258 79.3-58.2 130.9-152.1 130.9-258s-51.6-199.9-131-258c-79.3 58.1-130.8 152-130.8 258z" fill="#ff2076"/><g fill="#fff"><path d="m507.2 159.6c-22.7 12.9-42 31-56.3 52.8-2.4 3.6 1.6 8.6 5.6 7.3 22.3-6.9 44.8-13.9 68.4-14.4-1.4-2.5-2.9-5-4.3-7.5-10 14.5-20 29-30 43.6-5 7.3-10 14.5-15 21.8-3.6 5.2-7.7 11.8-3.5 17.9 3.2 4.7 9.2 5.1 14.2 4.1 8.2-1.6 16.4-5.5 24.3-8.3 16.9-6 33.9-11.9 50.8-17.9-1.9-2.4-3.8-4.9-5.6-7.3-13.1 19.9-26.2 39.8-39.3 59.6-6.3 9.5-12.8 18.9-18.8 28.6-4.9 8-8.4 17.7-3.1 26.4 1.1 1.8 3.6 3.1 5.6 2.3 24.9-9.3 49.9-18.6 74.8-28-1.9-2.4-3.8-4.9-5.6-7.3-15.6 25.2-31.2 50.3-46.8 75.5-3.8 6.2-7.6 12.3-11.4 18.5-3.3 5.4-7.4 10.7-9.9 16.6-3.3 8-2.7 18.8 7.7 20 6.4.7 6.3-9.3 0-10 .7.1.6.6.4-.5-.1-.6 0-1.3 0-1.9.2-1.6.7-3.3 1.5-4.8 2.6-5.3 6.3-10.2 9.4-15.2 6.4-10.3 12.8-20.7 19.2-31 12.8-20.7 25.6-41.4 38.5-62.1 2.2-3.5-1.5-8.9-5.6-7.3-24.9 9.3-49.9 18.6-74.8 28 1.9.8 3.8 1.5 5.6 2.3-4.8-7.9 4.6-18.6 8.8-24.9 5.8-8.8 11.6-17.7 17.5-26.5 11.6-17.7 23.3-35.3 34.9-53 2.3-3.5-1.6-8.8-5.6-7.3-14.1 5-28.2 9.9-42.3 14.9-4 1.4-34.9 14.1-36.1 10.5-.5-1.6 4.3-7.1 5-8.2 2-3 4.1-5.9 6.1-8.9 4.1-5.9 8.1-11.8 12.2-17.7 8.5-12.4 17-24.7 25.5-37.1 2.2-3.1-.7-7.6-4.3-7.5-24.4.6-47.9 7.6-71 14.8 1.9 2.4 3.8 4.9 5.6 7.3 13.4-20.4 31.5-37.2 52.7-49.2 5.6-3.6.6-12.2-5-9z"/><path d="m93.3 333.9-2.8 7.7h-14.6l21.4-53.3h10.7l21.2 53.3h-14.8l-2.6-7.7zm3.8-10.8h11.2l-5.5-18.2h-.1-.1z"/><path d="m198 341.6h-11.4v-4.3h-.1c-1 1.7-3.9 5.6-12 5.6-12.1 0-20-9.4-20-21.4 0-13.5 9.6-21.2 19.8-21.2 7.1 0 10.4 3.5 11.7 4.8v-16.7h12zm-21.5-9.9c7.5 0 10.2-6.1 10.2-10.3 0-4.8-3.5-10-10.1-10-6.9 0-10.2 5.4-10.2 10 .1 6.2 4.5 10.3 10.1 10.3z"/><path d="m245.2 329.1c-1.9 4.5-4.8 7.9-8.1 10.2-3.3 2.4-7.3 3.6-11.4 3.6-11.4 0-21.2-9.3-21.2-21.2 0-11.2 8.8-21.5 21-21.5s21.1 9.6 21.1 21.8c0 1.6-.1 2.2-.3 3.2h-30c.7 4.8 4.7 7.6 9.4 7.6 3.7 0 5.6-1.7 7.3-3.7zm-10.6-11.9c-.5-2.4-2.9-6.8-9.1-6.8s-8.6 4.5-9.1 6.8z"/><path d="m253.2 288.3h12v16.5c4.2-4.5 9.9-4.5 11.6-4.5 8.4 0 19.7 6 19.7 21.1 0 14.4-10 21.6-20.2 21.6-5.6 0-9.9-2.7-11.4-5.6h-.1v4.2h-11.4v-53.3zm21.2 43.5c6.1 0 10-5 10-10.2s-3.9-10.2-9.8-10.2c-6.3 0-9.9 5.1-9.9 10.1 0 5.5 3.7 10.3 9.7 10.3z"/><path d="m345 341.6h-12v-4.3h-.1c-2 3.9-7 5.7-11.7 5.7-12.7 0-20.1-9.9-20.1-21.4 0-13.1 9.4-21.3 20.1-21.3 6.6 0 10.2 3.2 11.7 5.6h.1v-4.2h12zm-21.9-9.8c7.5 0 10-6.3 10-10.2 0-4.8-3.3-10.2-10.1-10.2s-9.9 5.8-9.9 10.3c0 3.8 2.8 10.1 10 10.1z"/><path d="m368.4 301.6h5.8v9.1h-5.8v30.9h-12v-30.9h-5.9v-9.1h5.9v-13.3h12z"/><path d="m417.9 329.1c-1.9 4.5-4.8 7.9-8.1 10.2-3.3 2.4-7.3 3.6-11.4 3.6-11.4 0-21.2-9.3-21.2-21.2 0-11.2 8.8-21.5 21-21.5s21.1 9.6 21.1 21.8c0 1.6-.1 2.2-.3 3.2h-30c.7 4.8 4.7 7.6 9.4 7.6 3.7 0 5.6-1.7 7.3-3.7zm-10.6-11.9c-.5-2.4-2.9-6.8-9.1-6.8s-8.6 4.5-9.1 6.8z"/><path d="m631.6 288.3h17.4c9.9 0 13.5 1.5 16.4 3.9 4.2 3.5 6.3 8.7 6.3 14.1s-2.2 11.1-5.6 14c-3.7 3.1-7.3 4.6-15.6 4.6h-5.9v16.7h-13zm13.1 24.6h5.5c2.6 0 8.5 0 8.5-6.4 0-6.3-6-6.3-9-6.3h-5z"/><path d="m695.1 300.3c14.5 0 21.5 11.4 21.5 21.2s-7 21.2-21.5 21.2-21.5-11.4-21.5-21.2 7-21.2 21.5-21.2zm0 31.4c5.2 0 9.6-4.2 9.6-10.1 0-5.8-4.4-10.1-9.6-10.1s-9.6 4.2-9.6 10.1c.1 5.8 4.5 10.1 9.6 10.1z"/><path d="m723.4 288.3h12v53.3h-12z"/><path d="m756 297.4h-12v-9.1h12zm0 44.2h-12v-40h12z"/><path d="m778.9 301.6h5.8v9.1h-5.8v30.9h-12v-30.9h-5.9v-9.1h5.9v-13.3h12z"/><path d="m801.8 297.4h-12v-9.1h12zm0 44.2h-12v-40h12z"/><path d="m810.9 310.7h-4.5v-9.1h4.5v-2.1c0-11.2 9.4-12.2 15.3-12.2h1.7v9h-1.4c-1 0-3.7.4-3.7 3.7v1.6h5v9.1h-5v30.9h-12v-30.9z"/><path d="m873.6 341.6h-12v-4.3h-.1c-2 3.9-7 5.7-11.7 5.7-12.7 0-20.1-9.9-20.1-21.4 0-13.1 9.4-21.3 20.1-21.3 6.6 0 10.2 3.2 11.7 5.6h.1v-4.2h12zm-21.9-9.8c7.5 0 10-6.3 10-10.2 0-4.8-3.3-10.2-10.1-10.2s-9.9 5.8-9.9 10.3c0 3.8 2.8 10.1 10 10.1z"/><path d="m922.7 326.4c-2.2 9.1-10.2 16.5-21 16.5-12.1 0-21.4-9.5-21.4-21.4 0-11.7 9.1-21.2 21.1-21.2 10.6 0 19.2 7 21.2 16.8h-12.1c-1.3-2.7-3.7-5.6-8.6-5.6-5.7-.3-9.5 4.4-9.5 10.2s3.8 10.2 9.5 10.2c5 0 7.3-2.9 8.6-5.3h12.2z"/><path d="m943.6 301.6h5.8v9.1h-5.8v30.9h-12v-30.9h-5.9v-9.1h5.9v-13.3h12z"/></g></svg>