<svg enable-background="new 0 0 1017.3 639.6" viewBox="0 0 1017.3 639.6" xmlns="http://www.w3.org/2000/svg"><circle cx="319.8" cy="319.8" fill="#ffb250" r="319.8"/><circle cx="697.5" cy="319.8" fill="#8bc5ff" r="319.8"/><path d="m377.8 319.8c0 105.9 51.5 199.8 130.9 258 79.3-58.2 130.9-152.1 130.9-258s-51.6-199.9-131-258c-79.3 58.1-130.8 152-130.8 258z" fill="#ff2076"/><g fill="#fff"><path d="m507.2 159.6c-22.7 12.9-42 31-56.3 52.8-2.4 3.6 1.6 8.6 5.6 7.3 22.3-6.9 44.8-13.9 68.4-14.4-1.4-2.5-2.9-5-4.3-7.5-10 14.5-20 29-30 43.6-5 7.3-10 14.5-15 21.8-3.6 5.2-7.7 11.8-3.5 17.9 3.2 4.7 9.2 5.1 14.2 4.1 8.2-1.6 16.4-5.5 24.3-8.3 16.9-6 33.9-11.9 50.8-17.9-1.9-2.4-3.8-4.9-5.6-7.3-13.1 19.9-26.2 39.8-39.3 59.6-6.3 9.5-12.8 18.9-18.8 28.6-4.9 8-8.4 17.7-3.1 26.4 1.1 1.8 3.6 3.1 5.6 2.3 24.9-9.3 49.9-18.6 74.8-28-1.9-2.4-3.8-4.9-5.6-7.3-15.6 25.2-31.2 50.3-46.8 75.5-3.8 6.2-7.6 12.3-11.4 18.5-3.3 5.4-7.4 10.7-9.9 16.6-3.3 8-2.7 18.8 7.7 20 6.4.7 6.3-9.3 0-10 .7.1.6.6.4-.5-.1-.6 0-1.3 0-1.9.2-1.6.7-3.3 1.5-4.8 2.6-5.3 6.3-10.2 9.4-15.2 6.4-10.3 12.8-20.7 19.2-31 12.8-20.7 25.6-41.4 38.5-62.1 2.2-3.5-1.5-8.9-5.6-7.3-24.9 9.3-49.9 18.6-74.8 28 1.9.8 3.8 1.5 5.6 2.3-4.8-7.9 4.6-18.6 8.8-24.9 5.8-8.8 11.6-17.7 17.5-26.5 11.6-17.7 23.3-35.3 34.9-53 2.3-3.5-1.6-8.8-5.6-7.3-14.1 5-28.2 9.9-42.3 14.9-4 1.4-34.9 14.1-36.1 10.5-.5-1.6 4.3-7.1 5-8.2 2-3 4.1-5.9 6.1-8.9 4.1-5.9 8.1-11.8 12.2-17.7 8.5-12.4 17-24.7 25.5-37.1 2.2-3.1-.7-7.6-4.3-7.5-24.4.6-47.9 7.6-71 14.8 1.9 2.4 3.8 4.9 5.6 7.3 13.4-20.4 31.5-37.2 52.7-49.2 5.6-3.6.6-12.2-5-9z"/><g enable-background="new"><path d="m170.1 157.9h-10.5v-12h34.6v12h-10.4v41.3h-13.6v-41.3z"/><path d="m199.1 145.9h12v17h.1c2-3.6 6-5 10.3-5 3.8 0 8.4 1.4 10.9 4.4 3.4 4 3.7 7.5 3.7 14.6v22.3h-12v-21.7c0-1.9 0-8.4-6.4-8.4-6.7 0-6.7 6-6.7 7.9v22.2h-12z"/><path d="m283.2 186.7c-1.9 4.5-4.8 7.9-8.1 10.2-3.3 2.4-7.3 3.6-11.4 3.6-11.4 0-21.2-9.3-21.2-21.2 0-11.2 8.8-21.5 21-21.5s21.1 9.6 21.1 21.8c0 1.6-.1 2.2-.3 3.2h-30c.7 4.8 4.7 7.6 9.4 7.6 3.7 0 5.6-1.7 7.3-3.7zm-10.6-11.9c-.5-2.4-2.9-6.8-9.1-6.8s-8.6 4.5-9.1 6.8z"/></g><g enable-background="new"><path d="m163.2 245.6h11.2v4.2h.1c.9-1.7 3.5-5.6 11-5.6 3.5 0 8.4 1.2 11.5 7.1 2.4-3.9 6.6-7.1 12.7-7.1 2.8 0 7.3.6 10.5 4 3.7 4 4.3 6.6 4.3 15.5v21.8h-12v-21.2c0-3.2 0-8.9-6.1-8.9-6.6 0-6.6 6-6.6 8.3v21.8h-12v-21.7c0-2.2 0-8.4-6-8.4-6.8 0-6.8 6.5-6.8 8.9v21.2h-12v-39.9z"/><path d="m252.6 244.3c14.5 0 21.5 11.4 21.5 21.2s-7 21.2-21.5 21.2-21.5-11.4-21.5-21.2 7-21.2 21.5-21.2zm0 31.4c5.2 0 9.6-4.2 9.6-10.1 0-5.8-4.4-10.1-9.6-10.1s-9.6 4.2-9.6 10.1c.1 5.8 4.5 10.1 9.6 10.1z"/><path d="m280.9 245.6h11.2v4.2h.1c1-1.9 3.1-5.6 10-5.6v12c-5.5.1-9.4 1.3-9.4 7.3v22h-12z"/><path d="m345.3 273.1c-1.9 4.5-4.8 7.9-8.1 10.2-3.3 2.4-7.3 3.6-11.4 3.6-11.4 0-21.2-9.3-21.2-21.2 0-11.2 8.8-21.5 21-21.5s21.1 9.6 21.1 21.8c0 1.6-.1 2.2-.3 3.2h-30c.7 4.8 4.7 7.6 9.4 7.6 3.7 0 5.6-1.7 7.3-3.7zm-10.6-11.9c-.5-2.4-2.9-6.8-9.1-6.8s-8.6 4.5-9.1 6.8z"/></g><g enable-background="new"><path d="m200.1 332-20 53.3h-12.7l6.3-15.3-14.7-38h12.7l8 23.2h.1l7.6-23.2z"/><path d="m222 330.7c14.5 0 21.5 11.4 21.5 21.2s-7 21.2-21.5 21.2-21.5-11.4-21.5-21.2 7-21.2 21.5-21.2zm0 31.4c5.2 0 9.6-4.2 9.6-10.1 0-5.8-4.4-10.1-9.6-10.1s-9.6 4.2-9.6 10.1c.1 5.8 4.4 10.1 9.6 10.1z"/><path d="m287.3 372h-11.3v-4.2h-.1c-2.4 5.1-7.3 5.5-10.4 5.5-2.4 0-8.2-.6-11.7-5-3.2-4-3.6-6.8-3.6-12.3v-24h12v22.1c0 2.7 0 8 6.4 8 3.5 0 6.8-1.8 6.8-8.1v-22h12v40z"/></g><g enable-background="new"><path d="m163.6 405.1h12v27.8h.1l11.1-14.5h14.2l-15 17.6 14.6 22.4h-13.6l-11.3-19.2h-.1v19.2h-12z"/><path d="m205.8 418.4h11.2v4.2h.1c1.2-1.9 3.7-5.6 10.9-5.6 3.8 0 8.1 1.6 10.2 3.5s4.6 5 4.6 12.9v25h-12v-21.8c0-2.8 0-8.3-6.3-8.3-6.8 0-6.8 5.9-6.8 8.4v21.7h-12v-40z"/><path d="m270.9 417.1c14.5 0 21.5 11.4 21.5 21.2s-7 21.2-21.5 21.2-21.5-11.4-21.5-21.2 7-21.2 21.5-21.2zm0 31.4c5.2 0 9.6-4.2 9.6-10.1 0-5.8-4.4-10.1-9.6-10.1s-9.6 4.2-9.6 10.1c0 5.8 4.4 10.1 9.6 10.1z"/><path d="m306.3 418.4 6 24.8h.1l6.6-24.8h10.1l6.6 24.8h.1l6-24.8h12.3l-12.2 40h-11.1l-6.7-25.9h-.1l-6.7 25.9h-11.1l-12.2-40z"/></g><g enable-background="new"><path d="m665.9 179.8-15.9-33.9h14.8l7.9 21.4 8-21.4h14.6l-15.8 33.9v19.4h-13.6z"/><path d="m713.5 157.9c14.5 0 21.5 11.4 21.5 21.2s-7 21.2-21.5 21.2-21.5-11.4-21.5-21.2 7-21.2 21.5-21.2zm0 31.4c5.2 0 9.6-4.2 9.6-10.1 0-5.8-4.4-10.1-9.6-10.1s-9.6 4.2-9.6 10.1c0 5.8 4.4 10.1 9.6 10.1z"/><path d="m778.8 199.2h-11.3v-4.2h-.1c-2.4 5.1-7.3 5.5-10.4 5.5-2.4 0-8.2-.6-11.7-5-3.2-4-3.6-6.8-3.6-12.3v-23.9h12v22.1c0 2.7 0 8 6.4 8 3.5 0 6.8-1.8 6.8-8.1v-22h12v39.9z"/><path d="m800.7 161c0 7.1-4.8 8.7-7.3 8.7h-5.2v-6.4h2.6c2.7 0 3.1-1.9 3.1-2.7v-2.4h-5.7v-12.2h12.5z"/><path d="m810.1 145.9h12v53.3h-12z"/><path d="m830.6 145.9h12v53.3h-12z"/></g><g enable-background="new"><path d="m653.7 245.6h11.2v4.2h.1c1.2-1.9 3.7-5.6 10.9-5.6 3.8 0 8.1 1.6 10.2 3.5s4.6 5 4.6 12.9v25h-12v-21.8c0-2.8 0-8.3-6.3-8.3-6.8 0-6.8 5.9-6.8 8.4v21.7h-12z"/><path d="m737.7 273.1c-1.9 4.5-4.8 7.9-8.1 10.2-3.3 2.4-7.3 3.6-11.4 3.6-11.4 0-21.2-9.3-21.2-21.2 0-11.2 8.8-21.5 21-21.5s21.1 9.6 21.1 21.8c0 1.6-.1 2.2-.3 3.2h-30c.7 4.8 4.7 7.6 9.4 7.6 3.7 0 5.6-1.7 7.3-3.7zm-10.6-11.9c-.5-2.4-2.9-6.8-9.1-6.8s-8.6 4.5-9.1 6.8z"/><path d="m766.9 285.6h-11.4l-14.3-40h12.4l7.6 24.9h.1l7.6-24.9h12.4z"/><path d="m824 273.1c-1.9 4.5-4.8 7.9-8.1 10.2-3.3 2.4-7.3 3.6-11.4 3.6-11.4 0-21.2-9.3-21.2-21.2 0-11.2 8.8-21.5 21-21.5s21.1 9.6 21.1 21.8c0 1.6-.1 2.2-.3 3.2h-30c.7 4.8 4.7 7.6 9.4 7.6 3.7 0 5.6-1.7 7.3-3.7zm-10.6-11.9c-.5-2.4-2.9-6.8-9.1-6.8s-8.6 4.5-9.1 6.8z"/><path d="m831.9 245.6h11.2v4.2h.1c1-1.9 3.1-5.6 10-5.6v12c-5.5.1-9.4 1.3-9.4 7.3v22h-12v-39.9z"/></g><g enable-background="new"><path d="m695.1 367.2c0 6-.4 9.8-2.4 13.2-3.1 5-10.4 9.4-20.2 9.4-13.9 0-19.2-8.4-19.9-14h13.8c1.7 4 6.2 4 7 4 1.5 0 9.7-.1 9.7-10.9v-1.2h-.1c-1.2 2.3-4.7 5.7-10.9 5.7-10.9 0-20.2-8.2-20.2-21 0-13.7 9.8-21.5 20.2-21.5 4.5 0 8.9 1.6 11 5h.1v-3.9h12zm-21.8-5.1c5.8 0 9.8-4.2 9.8-9.9 0-6.4-4.4-10.3-9.7-10.3-5.1 0-9.6 4.1-9.6 9.9 0 6.4 4.6 10.3 9.5 10.3z"/><path d="m740.6 372h-11.3v-4.2h-.1c-2.4 5.1-7.3 5.5-10.4 5.5-2.4 0-8.2-.6-11.7-5-3.2-4-3.6-6.8-3.6-12.3v-24h12v22.1c0 2.7 0 8 6.4 8 3.5 0 6.8-1.8 6.8-8.1v-22h12v40z"/><path d="m787.8 359.5c-1.9 4.5-4.8 7.9-8.1 10.2-3.3 2.4-7.3 3.6-11.4 3.6-11.4 0-21.2-9.3-21.2-21.2 0-11.2 8.8-21.5 21-21.5s21.1 9.6 21.1 21.8c0 1.6-.1 2.2-.3 3.2h-30c.7 4.8 4.7 7.6 9.4 7.6 3.7 0 5.6-1.7 7.3-3.7zm-10.6-11.9c-.5-2.4-2.9-6.8-9.1-6.8s-8.6 4.5-9.1 6.8z"/><path d="m812.7 343.3c-.1-.9-.2-3-3.7-3-2.5 0-3.4 1.6-3.4 2.7 0 2.2 3 3.4 6.1 4.3 6.8 1.9 14 3.9 14 12.5 0 8.4-7.4 13.6-16.3 13.6-6 0-15.2-2.7-16.3-13.2h11.9c.5 3.7 4 3.7 4.5 3.7 2 0 4.2-1.2 4.2-3.1 0-3.1-3-3.5-10.6-6.4-5.2-1.7-9.5-5-9.5-10.4 0-7.9 7.2-13.2 15.5-13.2 5.3 0 14.3 2.1 15.3 12.6h-11.7z"/><path d="m848.7 343.3c-.1-.9-.2-3-3.7-3-2.5 0-3.4 1.6-3.4 2.7 0 2.2 3 3.4 6.1 4.3 6.8 1.9 14 3.9 14 12.5 0 8.4-7.4 13.6-16.3 13.6-6 0-15.2-2.7-16.3-13.2h11.9c.5 3.7 4 3.7 4.5 3.7 2 0 4.2-1.2 4.2-3.1 0-3.1-3-3.5-10.6-6.4-5.2-1.7-9.5-5-9.5-10.4 0-7.9 7.2-13.2 15.5-13.2 5.3 0 14.3 2.1 15.3 12.6h-11.7z"/></g><path d="m662.3 418.4 6 24.8h.1l6.6-24.8h10l6.6 24.8h.1l6-24.8h12.3l-12.2 40h-11.1l-6.7-25.9h-.1l-6.7 25.9h-11.1l-12.2-40z"/><path d="m730.8 458.4h-12.5v-12.2h12.5z"/><path d="m753.3 458.4h-12.5v-12.2h12.5z"/><path d="m775.9 458.4h-12.5v-12.2h12.5z"/></g></svg>