<svg width="713" height="295" xmlns="http://www.w3.org/2000/svg" xmlns:xlink="http://www.w3.org/1999/xlink"><defs><path id="a" d="M.9 1h686.6v283H.9z"/></defs><g fill="none" fillRule="evenodd"><g transform="translate(25 11)"><mask id="b" fill="#fff"><use xlink:href="#a"/></mask><path d="M5.8 283.7A11457.6 11457.6 0 0 1 533.4 69.4c49.9-18.7 100.5-36 149.9-56.2 7.2-3 4.6-14.3-3.4-12-45.7 13.5-90.6 30.6-135.3 47.3a8021 8021 0 0 0-133 51 6304 6304 0 0 0-263.4 110.8A6318 6318 0 0 0 2.6 278.1c-3.8 1.8-.5 7.2 3.2 5.6" opacity="0.7" fill="#000" mask="url(#b)"/></g><path d="M2.7 8C23 16.4 43 25.9 63 34.9c19.6 8.7 39.4 16.9 59.1 25.2 39.9 17 80.3 32.7 120.5 48.8A17951.9 17951.9 0 0 0 586.3 243c11.7 4.4 23.3 9.3 35.4 12.8 10 2.9 17-12.6 7.2-17.2-19.8-9.3-41-16-61.5-23.8a25594 25594 0 0 1-61.1-23.2l-121.4-46c-81.1-31-162-62.5-243-94-22.7-8.8-45.5-17.5-68.4-26C50.6 17 27.4 9.5 4.8.3 0-1.7-2 6.1 2.7 8.1" opacity="0.7" fill="#000"/></g></svg>
