<?xml version="1.0" encoding="utf-8"?>
<svg version="1.1" xmlns="http://www.w3.org/2000/svg" xmlns:xlink="http://www.w3.org/1999/xlink" width="900" height="600" viewBox="0 0 900 600" fill="none" stroke="black">
  <path id="America/Adak" d="M71.2,495.4L66.2,495.4L64.6,494.2L60.6,494.2L59.7,493.4L57.2,494.7L56,493.5L57.5,490.3L60.3,488.8L61.4,489.7L62.9,489.2L69.7,491.2L75.4,491.5L76.1,492.4L78.3,491.3L80.3,492.2L80.7,493.7L83.3,494.8L86.2,493.7L87.2,495.8L85.6,496.9L82.1,497.7L73.5,495.1ZM48.9,482.7L51.7,484.6L51.3,486.5L53.7,489.9L52.2,491.5L50.6,491L46.9,485.2L45,485.3L44,483L46.6,481ZM55.3,488.6L52.7,487.6L53,485.7L54.4,485.2L56.2,486.5ZM40.6,477.4L42,476.8L43.4,478.8L42.3,479.8L40.7,479.2ZM30.5,470L31,467.5L32.4,467.4L35,468.9L35.9,471L39,474.2L37.4,475.6L35.9,474.3L35,475.4L33.1,475.4L31.8,474.1L31.6,471.8ZM97.2,496.4L94.1,496.2L92.1,496.9L89.3,496.8L89.4,494.2L92.7,493.4L93.9,493.8L96.2,492L98.5,493.6Z"></path>
  <path id="America/Anchorage" d="M182.3,457.1L183.6,455.5L185.3,457.3L184.5,458.8L182.5,458.7ZM151.9,484.2L150.5,482.7L151.1,481.4L153.1,480.8L153.8,483.4ZM145.7,481.3L147.1,482.1L146.9,483.5L144.6,483ZM200.9,454L197.3,452.9L195.2,452.8L190.7,454.3L188.6,455.8L188.1,453.2L184.2,452.5L181.4,454.2L181.2,455.5L179,457L177,456.2L174.9,456.4L173.9,458.6L166.6,462.3L165.4,463.8L167.1,465.5L167,467.7L165.4,468.5L166.2,470.4L165.5,473.2L160.5,476.8L159.1,479.3L154.8,479.8L154.3,478L156,476.3L153.5,471.8L151.5,473.2L150.1,476.5L149,477.3L150,481.5L147.5,482.4L147.1,479.1L141.8,483.1L138.8,484.3L140.2,487.5L138.1,489.9L134.3,488.9L133.6,487.5L131.8,486.9L130.3,489L127.9,490.6L129.2,479.3L133.8,478.7L136.6,476L140.6,473.8L144.2,469.6L144.8,466.9L144.1,465.4L140.6,466.3L139.4,464L138.2,464.9L135.9,464.3L134.2,464.8L131.1,464.1L135.3,429.1L137.1,429.5L135.7,425.8L140.6,385.6L143.1,385.3L145.2,383.3L148,382.5L149.2,383.2L152.5,379.8L153.5,379.8L158.7,383L162.8,383.5L164.9,385.5L167.9,384.8L171.7,384.9L175,386.3L179.1,387.3L182.5,385.8L187.8,387.9L198.1,440L198.2,440L200,449.2Z"></path>
  <path id="America/Boise" d="M241.5,164.5L228.1,161.8L210.1,158L201.3,155.9L203.1,147.7L187.3,144L189.1,135.5L194.9,111L199.1,108.4L204,109.5L205.1,110.9L204.8,112.4L208.2,113.2L208.9,110L210.2,109L212.3,105.6L213.9,105.2L215.9,102.8L216,101.1L218,99.3L219.5,96.2L223.3,91.6L222.8,88.7L220.1,86.2L222.6,83.4L225,85.1L226.4,87.4L225.6,89.5L224.4,95.5L226.9,96.2L231.2,95.9L234.6,98.4L239.1,95.6L244.6,100.1L244.3,97.8L245.8,98.9L247.4,97.5L249.9,99.9L255.9,96.6L257.3,99L257,102.3L258.6,107.8L260,109.7L259,111.4L260.5,114.7L261.9,114.3L263.4,116.3L263.8,121.7L265.6,123.8L266.8,121.6L270.8,122.4L271.8,123.2L273.5,121.2L275.9,122.4L279,122.2L279.5,123.3L281.1,122.6L283.6,123.5L283.6,122.2L285.8,119.8L287.7,122.5L287.4,123.3L289.5,125.6L285.8,149.1L282.2,171.5L244.5,165.1Z"></path>
  <path id="America/Chicago" d="M656,408.1L654.2,406.7L648.9,403.9L644.4,402.7L639.2,402.6L628.8,405L623.9,406.7L616.7,408.2L614.3,407.8L611.1,408.8L608,408.6L608.4,412.4L607.6,415.4L604,420.5L606.5,422.3L607,423.9L606.6,427L603.5,431.4L601.6,432.5L599.3,432.4L598.1,433.6L595.5,434.1L593.3,432.9L592.3,430.8L592.6,428L587.4,429.3L584.7,431.3L579.6,432.5L577.6,432.1L573.7,433.1L569.2,432.4L567.4,430.3L564,429.2L561.7,427.3L559.5,426.7L554.6,426.7L551.4,424.3L547.9,424.9L541.9,424L536.6,421.8L533.7,421L527.3,421.5L525.6,423.2L523.9,423.7L520.8,423.2L513.8,426.4L512.6,428.7L506.2,432.9L500.9,437.9L499,438.6L493.6,441.8L486.6,445.3L484.1,447.8L480.5,449.8L476.9,452.7L472.3,459.1L470.4,463.3L469.5,466.3L469.3,469.7L470,473.8L471.8,480L473,486.5L473,488.5L466.8,488.8L465.3,490.9L462.9,490L460.7,487.5L458.2,486.7L452.3,486.8L449.6,485.7L447.4,483.4L443.6,483.1L441,480.5L436.7,479.9L435.4,477.3L434.8,473.7L432.9,470.1L431,468.1L431.4,465.3L430.2,462.2L430.8,459.6L428.8,456.5L426.9,456L424.4,453.4L423.6,450L422.6,449.7L421.1,446.8L419.2,445.8L417.9,444.1L416.4,438.4L414.8,436.9L414.7,435.4L412.6,431.5L412.5,429.1L410.5,425.8L407.2,423.4L406.4,421.6L403.2,419.9L403.5,418.3L401.7,417.8L400.3,415L399,415.5L395.2,414.8L389.7,414.3L386.8,412.6L385.2,414.6L383.2,414.1L380.3,415L378.1,418.6L376.8,424.1L374.6,424.9L372.4,428.3L370.2,428.2L367.3,426.8L365.6,424.6L362.9,423.8L361.9,422.2L358.9,421.4L355.9,419.2L354.6,416.9L353.3,416.7L350.8,414.3L348.6,408.9L348.6,402.8L347.1,400.9L346.1,396.3L344.9,395.1L346,394.5L348.3,369.6L366.7,371.2L377.4,372L378.8,353.3L380.5,334.5L384,287.6L384.6,287.7L385.3,278.3L399.5,279.4L400.4,265.3L407.9,265.8L408.3,255.9L407.9,255.9L408.3,247.7L409.5,247.7L410.1,239.6L411.3,239.6L411.8,231.5L402.4,230.9L402.9,222.7L413.2,223.4L413.7,210.3L415.1,210.3L415.4,197.2L413.6,197.1L414,190.6L421.7,191L422,184.5L423.3,184.6L422.6,182.3L422.6,177.9L423.3,178L423.5,174.8L421.9,174.6L422.1,167.4L417.7,167.2L418.4,152.4L420.7,151.4L421.3,145.4L424,145.5L428,140.4L428.7,139.1L427,137.5L427.6,136L426.1,134.2L426.8,133.3L428.7,134.6L430.6,132.8L430.3,130.5L432.2,129.9L431.7,128.5L432.7,126L432.6,123.1L431.3,120.7L430.2,120.5L430.8,118.2L432.6,117.1L432,114.3L430,112.6L419.5,112L419.6,109.2L423.4,105.9L425.6,103.7L429.4,103.5L429.9,100.4L427.7,99.1L425.5,93L426.3,91.9L424.4,87.2L421.7,87.5L420.7,87L419.6,83.4L419.8,81.9L414.8,82.8L410.8,81.3L410.6,81.3L410,81.1L407.4,80.6L407,82L401.7,80L399.6,78.6L399,80.3L394.4,79.6L394.1,80.9L392.2,80.8L392.3,79.5L390.7,79.4L390,77.7L390.3,74.5L388.2,74.3L388.3,72.3L387.4,71.5L388.9,53L408.6,54.6L423.3,55.5L447.5,56.5L461.2,56.9L480.6,57.2L499.2,57.2L499.1,50.1L501.5,50.4L503.2,51.7L505,59.3L505,61.2L506.3,62.3L510.3,62.6L510.6,63.4L515.5,63.8L516.2,65.9L520.3,65.2L521.7,63.7L526.3,63.6L529.5,65L529.8,66.5L532.4,66.6L534.2,70.8L535.5,70.2L535.5,68.2L538.1,68.1L538.8,69.8L542.5,70.8L544.5,73.6L548.4,72.7L552.8,69.5L554.5,72.1L562.4,71.4L565.8,73.5L566.4,72.9L570.7,72.7L560.5,100.2L563,101.2L564.6,104.3L578.1,107.1L582.3,109.1L585.9,108.7L591.4,110.2L591,112.1L594.4,113L595.8,114.4L595.9,117.5L594.9,120.4L598.1,120.4L597.2,123.6L599.2,124.9L601.2,125.1L601.5,122.7L604.3,119.6L605.1,117.8L609.6,117.4L616.6,120.6L613.6,123.8L611.5,127.8L608.5,142.2L607.9,149.7L608.1,156.4L611.4,172.8L610.1,186.7L619.5,185.9L620.2,187.9L620.1,192L617.7,192.8L616.8,195.1L614.8,196.2L614.9,197.4L615.4,202.3L614.7,203.7L613.2,203.9L613.4,205.8L607.4,206.3L609.6,232.4L608.4,236.7L609.5,237.9L610.4,240.7L611.2,243.7L609.8,245.3L609.3,248.3L608.2,250.2L612,247.6L613.1,250.4L614.4,250.4L614.9,253.1L618.1,252.8L622.2,252.9L622.9,256.7L624.8,259.2L625.9,257.9L626.1,257.9L626.9,255.4L632.3,259.6L630.9,263.5L633.3,263.9L634.5,266L640.3,265.9L640.6,264.9L643,266.7L645.2,269.7L647.5,267.1L653.2,272.5L651.5,274.2L651.3,274.4L650.2,275.5L652.5,279.9L653.7,279.8L654.8,279.7L657.1,283.4L654.2,285.9L654.1,288.4L657.1,291L657.9,292.6L654.9,295.5L652.3,299.6L650.7,304.6L649,308L649.3,309.9L648,311.3L646,311.5L656.4,348.5L655.4,350.9L657.6,355.8L657.2,357L659.7,359.7L662.8,361.1L660.4,363.9L660.8,365.8L659.8,369.1L660.3,372.1L662,374.8L661.5,380.1L666.7,390.2L665.3,392.6L664.5,398.6L663.4,400.5L664.1,403.2L665.5,403.7L665.8,407.5L662.9,406.6L659.6,403.6L659.9,405.5Z"></path>
  <path id="America/Denver" d="M277.5,290.9L275.6,290.2L277.1,288.8ZM344.9,395.1L341.5,391.4L338.7,390.3L336.4,387.5L335.8,385.6L333.3,383.9L330.8,379.8L326.9,377.2L324.8,372.2L322.6,371L296.2,367.9L295.2,376.2L281.9,374.5L291.8,303.1L289.5,302.8L289.7,301.6L283.4,300.2L283.1,301.8L264.1,298.9L259,298.4L260,292L259.1,289L259.7,287L256.4,286.5L255.8,288.6L253.1,287.6L254.1,286.3L254.6,281.9L253.8,281.3L254.5,277.6L253.5,275.4L254.2,271.8L258.5,266.2L261.4,266L262.9,263.8L237.1,259.4L223.6,256.8L225.7,245.8L241.2,166.5L241.5,164.5L244.5,165.1L282.2,171.5L285.8,149.1L289.5,125.6L287.4,123.3L287.7,122.5L285.8,119.8L283.6,122.2L283.6,123.5L281.1,122.6L279.5,123.3L279,122.2L275.9,122.4L273.5,121.2L271.8,123.2L270.8,122.4L266.8,121.6L265.6,123.8L263.8,121.7L263.4,116.3L261.9,114.3L260.5,114.7L259,111.4L260,109.7L258.6,107.8L257,102.3L257.3,99L255.9,96.6L249.9,99.9L247.4,97.5L248.6,95.7L248.2,93.6L250.9,92L250.3,86.5L253.1,81.9L254.4,78.2L250.7,77.6L250.9,76.4L247.5,73.4L247.8,71.7L246.4,70.5L245.7,67.8L243.9,64.4L241.7,63.3L239.5,60.1L240.9,60.1L239.8,58.1L240.8,57.5L237.8,49.6L241.8,31.1L251.3,33.1L270.4,36.9L296.3,41.5L309.3,43.5L329.9,46.5L347.4,48.8L362,50.4L381.1,52.3L388.9,53L387.4,71.5L388.3,72.3L388.2,74.3L390.3,74.5L390,77.7L390.7,79.4L392.3,79.5L392.2,80.8L394.1,80.9L394.4,79.6L399,80.3L399.6,78.6L401.7,80L407,82L407.4,80.6L410,81.1L409.7,85.6L410.5,85.7L410.1,92.1L410.7,92.1L410.4,97L415.3,97.3L415.1,98.9L420.5,99.3L420.2,104.1L423.5,104.3L423.4,105.9L419.6,109.2L419.5,112L430,112.6L432,114.3L432.6,117.1L430.8,118.2L430.2,120.5L431.3,120.7L432.6,123.1L432.7,126L431.7,128.5L432.2,129.9L430.3,130.5L430.6,132.8L428.7,134.6L426.8,133.3L426.1,134.2L427.6,136L427,137.5L428.7,139.1L428,140.4L424,145.5L421.3,145.4L420.7,151.4L418.4,152.4L417.7,167.2L422.1,167.4L421.9,174.6L423.5,174.8L423.3,178L422.6,177.9L422.6,182.3L423.3,184.6L422,184.5L421.7,191L414,190.6L413.6,197.1L415.4,197.2L415.1,210.3L413.7,210.3L413.2,223.4L402.9,222.7L402.4,230.9L411.8,231.5L411.3,239.6L410.1,239.6L409.5,247.7L408.3,247.7L407.9,255.9L408.3,255.9L407.9,265.8L400.4,265.3L399.5,279.4L385.3,278.3L384.6,287.7L384,287.6L380.5,334.5L378.8,353.3L377.4,372L366.7,371.2L348.3,369.6L346,394.5ZM262.3,280.4L260.9,281.1L261.4,283.3L262.9,283.6L264.3,280.4ZM279.4,288.4L279.3,286.9L274,283.8L270.8,283.4L271.8,281.6L273.7,281.5L274.5,279.3L276.4,276.8L272.4,277.3L268.6,276.5L267.7,278.4L265.9,278L263.7,291.6L265.3,292.8L267.7,292.8L274.8,293.9L274.6,292.5L276.8,293.1L276.7,291.7L278.9,292.1Z"></path>
  <path id="America/Detroit" d="M560.5,100.2L570.7,72.7L572.6,73.3L580.5,67.6L584.2,66.2L600.8,73.9L631.1,88L632.9,92.6L635.9,95.4L641.3,93.5L642.2,98.8L644.6,102L646.1,100.6L649.4,100.4L651.4,102.2L649.8,105.7L665,112.7L674.9,144.4L672.2,157.4L672.1,163.4L670.6,164.6L668.6,168.3L665.6,169.8L664.9,171.4L665.1,175.1L665.8,176.6L662.2,181.4L643.2,184.5L643.1,183.3L619.5,185.9L610.1,186.7L611.4,172.8L608.1,156.4L607.9,149.7L608.5,142.2L611.5,127.8L613.6,123.8L616.6,120.6L609.6,117.4L605.1,117.8L604.3,119.6L601.5,122.7L601.2,125.1L599.2,124.9L599.7,123L602.2,118.4L601.3,109.7L600.6,108.1L597.4,108.4L597,103.5L590.6,104.1L590.3,100.9L579,101.8L579.2,103.4L574.3,103.7L574.1,100.5L569.3,100.8L569.2,99.2L567.6,99.3L567.4,96.1L565.2,98.1Z"></path>
  <path id="America/Indiana/Indianapolis" d="M615.4,202.3L621.9,201.7L621.4,196.8L620.9,191.9L620.1,192L620.2,187.9L619.5,185.9L643.1,183.3L643.2,184.5L646.3,210.4L648.3,229.2L644.8,229.6L644.6,236.8L643.7,236.9L644.2,241.4L643.4,240.6L640.6,241.4L641.2,243.7L635.9,243.9L634.8,246L633.2,246.4L633.4,247.7L629.6,248L628.9,248.6L623.5,249.1L622.5,239.5L610.4,240.7L609.5,237.9L608.4,236.7L609.6,232.4L607.4,206.3L613.4,205.8L613.2,203.9L614.7,203.7Z"></path>
  <path id="America/Indiana/Knox" d="M621.4,196.8L614.9,197.4L614.8,196.2L616.8,195.1L617.7,192.8L620.1,192L620.9,191.9Z"></path>
  <path id="America/Indiana/Marengo" d="M629,252.7L627.2,254L627,252.4L623.8,251.6L623.5,249.1L628.9,248.6L629.6,248L629.7,251.7Z"></path>
  <path id="America/Indiana/Petersburg" d="M618.1,252.8L614.9,253.1L614.4,250.4L613.1,250.4L612,247.6L614.6,247.8L616,247L617.7,247.5Z"></path>
  <path id="America/Indiana/Tell_City" d="M622.2,252.9L623.8,251.6L627,252.4L627.2,254L626.9,255.4L626.1,257.9L625.9,257.9L624.8,259.2L622.9,256.7Z"></path>
  <path id="America/Indiana/Vevay" d="M644.2,241.4L643.7,236.9L644.6,236.8L644.6,237.3L649.8,237.1L649.5,239L647,239.4Z"></path>
  <path id="America/Indiana/Vincennes" d="M623.5,249.1L623.8,251.6L622.2,252.9L618.1,252.8L617.7,247.5L616,247L614.6,247.8L612,247.6L608.2,250.2L609.3,248.3L609.8,245.3L611.2,243.7L610.4,240.7L622.5,239.5Z"></path>
  <path id="America/Indiana/Winamac" d="M615.4,202.3L614.9,197.4L621.4,196.8L621.9,201.7Z"></path>
  <path id="America/Juneau" d="M217.1,462L216.5,460.4L212.6,458.7L211,457.4L213.2,455.7L215.8,453.2L215.8,450.3L218.2,448.3L220.1,449.3L220.8,451L222.6,451.5L223.8,453L227.5,454.8L233.1,460.4L232,460.3L230.2,462.2L227.8,463.5L226.6,465.8L224,460.3L222.7,460.8L220,460L219.9,461.1Z"></path>
  <path id="America/Kentucky/Louisville" d="M629,252.7L629.7,251.7L629.6,248L633.4,247.7L633.2,246.4L634.8,246L635.9,243.9L641.2,243.7L640.4,246L638.6,247.9L642.2,249.7L642.1,252.5L640.4,253.5L638.1,253.5L635.1,255.5L631.5,255.6L630.1,254.9Z"></path>
  <path id="America/Kentucky/Monticello" d="M654.8,279.7L653.7,279.8L652.5,279.9L650.2,275.5L651.3,274.4L651.5,274.2L653.2,272.5L655.5,272.5L657.3,274.8Z"></path>
  <path id="America/Los_Angeles" d="M241.5,164.5L241.2,166.5L225.7,245.8L223.6,256.8L220.9,271.7L218.6,274.6L217.4,274.6L215.9,271.8L213,271.1L210.4,271.5L209,282.8L209.5,285.5L209.4,289.3L208,290.4L207.4,294.5L209.2,297.9L210.2,303.2L212.3,305.6L212.7,307.3L207.5,309.6L205.4,312.3L205.1,316.6L204.2,319.2L201.8,321.4L200.6,321.4L200.8,323.9L199.7,327.1L200.2,328.4L202.3,328.9L202.8,331.3L201.3,333.9L198.1,334L160.7,329.6L155.7,327.4L155.8,323.5L156.5,321.2L156.4,319L154.9,315.4L151.9,311.3L149.1,308.3L149.8,310.2L149.4,312.8L146.9,314.9L144.6,315L146.7,318.7L146.9,320.5L145.7,322.8L141.5,323.8L139.8,323.2L137.6,320.2L136.5,315L137.3,312.8L140.1,311.3L138.6,308.1L136.9,309.3L133.9,309.1L132.5,307.9L131.6,311L129.2,312.4L126.6,312.1L124,310.3L122,306.8L121.7,304.2L124.1,301.6L126.5,301.5L131,305.2L133,302.7L135,301.6L138.4,302.4L139.6,304.4L142.6,303.3L143,300.4L140.9,300.5L135.8,297.3L133.1,298.3L127.1,297.8L124.4,297.2L121.9,297.5L119.2,296.8L117.1,294.1L113.9,291.8L112.9,289.1L113.2,286.8L116,284.7L113.2,280L115.2,270.8L113.1,267.9L113.2,264.3L111.3,260.5L109.8,259.1L109,255.8L107.7,253.2L106.4,248.2L104,245L103.5,243.3L103.9,237L104.9,232.9L102.1,228.7L101.1,226L101,223L101.7,221.5L101.1,219.5L101.5,215.8L98.6,217L96.7,216.4L94.3,213L94.2,210.3L96.4,207.9L98.1,204.4L97.5,200.8L95.4,197.7L94.5,194.7L92.6,191.5L91.5,187.3L92.6,184.7L92.6,179.4L94.6,174.2L94.6,172.1L92.8,166.9L90.5,163.2L90.5,159.7L89.9,157.3L91.2,154.6L92.9,153.4L97.4,148.5L97.8,144.8L98.8,143.4L99.4,140.4L100.8,139.2L100.8,137.1L98.9,133.5L99.1,131.5L100.7,129.6L100.5,125.4L100.9,119.8L102.1,118.1L100.6,115.7L100.8,113.9L104.8,109.4L107.8,103.3L109.6,102.2L112.1,97.9L117,86.3L119,80.2L122.3,73.6L122.8,70.7L125.3,65L125.2,63.6L126.4,58.9L127.6,57.6L126.8,53.8L128.2,50.7L129.6,44.2L129.2,41.9L130.4,37.3L129.3,32.9L130.1,30.1L129.8,26.6L128.3,21.6L129.3,16L131.6,11.7L134.9,12.7L142.4,18.8L147.7,21.8L151.5,21.8L153.8,19.8L153.2,17.2L153.4,14.5L156.9,14.1L157.2,13L154.4,8.8L173,14.3L194,19.9L209.9,23.8L228.6,28.2L241.8,31.1L237.8,49.6L240.8,57.5L239.8,58.1L240.9,60.1L239.5,60.1L241.7,63.3L243.9,64.4L245.7,67.8L246.4,70.5L247.8,71.7L247.5,73.4L250.9,76.4L250.7,77.6L254.4,78.2L253.1,81.9L250.3,86.5L250.9,92L248.2,93.6L248.6,95.7L247.4,97.5L245.8,98.9L244.3,97.8L244.6,100.1L239.1,95.6L234.6,98.4L231.2,95.9L226.9,96.2L224.4,95.5L225.6,89.5L226.4,87.4L225,85.1L222.6,83.4L220.1,86.2L222.8,88.7L223.3,91.6L219.5,96.2L218,99.3L216,101.1L215.9,102.8L213.9,105.2L212.3,105.6L210.2,109L208.9,110L208.2,113.2L204.8,112.4L205.1,110.9L204,109.5L199.1,108.4L194.9,111L189.1,135.5L187.3,144L203.1,147.7L201.3,155.9L210.1,158L228.1,161.8Z"></path>
  <path id="America/Menominee" d="M560.5,100.2L565.2,98.1L567.4,96.1L567.6,99.3L569.2,99.2L569.3,100.8L574.1,100.5L574.3,103.7L579.2,103.4L579,101.8L590.3,100.9L590.6,104.1L597,103.5L597.4,108.4L600.6,108.1L601.3,109.7L602.2,118.4L599.7,123L599.2,124.9L597.2,123.6L598.1,120.4L594.9,120.4L595.9,117.5L595.8,114.4L594.4,113L591,112.1L591.4,110.2L585.9,108.7L582.3,109.1L578.1,107.1L564.6,104.3L563,101.2Z"></path>
  <path id="America/Metlakatla" d="M240.3,473.5L240.3,473.5L240.3,473.5Z"></path>
  <path id="America/New_York" d="M712.3,494.1L716.6,493.9L718.6,496.4L717.6,499.9L714.9,501.7L711.3,501.6L709.8,500.6L708.8,498.3L709.8,495.8ZM656,408.1L659.9,405.5L659.6,403.6L662.9,406.6L665.8,407.5L665.5,403.7L664.1,403.2L663.4,400.5L664.5,398.6L665.3,392.6L666.7,390.2L661.5,380.1L662,374.8L660.3,372.1L659.8,369.1L660.8,365.8L660.4,363.9L662.8,361.1L659.7,359.7L657.2,357L657.6,355.8L655.4,350.9L656.4,348.5L646,311.5L648,311.3L649.3,309.9L649,308L650.7,304.6L652.3,299.6L654.9,295.5L657.9,292.6L657.1,291L654.1,288.4L654.2,285.9L657.1,283.4L654.8,279.7L657.3,274.8L655.5,272.5L653.2,272.5L647.5,267.1L645.2,269.7L643,266.7L640.6,264.9L640.3,265.9L634.5,266L633.3,263.9L630.9,263.5L632.3,259.6L626.9,255.4L627.2,254L629,252.7L630.1,254.9L631.5,255.6L635.1,255.5L638.1,253.5L640.4,253.5L642.1,252.5L642.2,249.7L638.6,247.9L640.4,246L641.2,243.7L640.6,241.4L643.4,240.6L644.2,241.4L647,239.4L649.5,239L649.8,237.1L644.6,237.3L644.6,236.8L644.8,229.6L648.3,229.2L646.3,210.4L643.2,184.5L662.2,181.4L665.8,176.6L666.6,178.3L672.5,181L676.3,180.5L690.6,168.3L705.8,162.2L719.8,151.5L719.4,149.1L717.1,147.2L716.7,143.9L714.2,140.6L720.3,136.1L745.3,131.2L748.3,121.7L751.2,117.5L754.1,115.3L755.4,112.2L760.3,104.7L763.8,101.3L767.4,100.2L774.3,98.8L788.1,95L797.8,92.8L808.1,89.9L808.6,85.6L809.5,84L811.7,84.5L813.5,82.2L815.3,83.8L814.8,80.7L817.4,80L815.6,78.4L816.8,75L818.7,73.1L818,72.1L819.5,69.9L818.2,67.8L818.5,65.1L817.6,64.6L818,61.8L819.4,59.7L818.8,54.5L824.4,38.1L826.8,38.2L827.7,41.3L829.8,42L835.6,38.2L835.4,36.9L837,36.4L841.3,38.3L844,39.9L850.2,59.9L851.4,64.7L856.9,65.5L856.2,66.9L857.9,69.2L857.5,70.6L860.2,72.8L860.5,71.5L862.3,71.4L866.6,76.6L867.8,76.9L867.1,81.8L868.2,86.5L865,86.3L864.4,87.4L857.9,93L859.6,94.3L860.3,97L859.7,98.7L856.6,100.3L853.8,99.1L851.2,104.9L848.8,106.4L846,106L844.7,107.9L841.6,108.6L837.4,111.4L835.2,113.7L833.3,118.1L834.3,121.2L833,125.6L835.1,127.7L835.4,130L834.6,132.2L834.7,135.4L837,135.4L839.6,134.5L843.3,135.3L845.4,137.1L847.9,141.4L848.8,145.2L848.4,148.5L849.8,150.1L850.4,153.4L848,156.3L845.6,157L841.6,156.6L839,156.9L838.1,158.5L834.4,159.4L830.9,157L829.2,158.3L829.5,161.5L828.3,163.1L825.6,164.2L824.5,166L817.3,172.1L807.3,178.9L802,181.3L800.1,181.6L800.5,185.2L801.2,194.9L799.1,202.3L797.7,205L795.8,207.2L794.5,212.1L791.7,215.5L793.2,220.2L793.3,224.4L792.5,229.8L791.2,234.3L789,236.8L789.1,240L787.4,248.2L786,251.7L788.4,256.1L790.9,261.8L792.5,264.4L797.3,270.7L798.8,273.9L799.6,282.6L799,284.7L795.7,286.3L793,288.2L788.7,294L787.2,297L786.9,299.4L785.2,301.1L783.1,301.4L780.4,299.6L775.4,302.2L771.6,305.9L769.6,309L768.4,314.5L768.4,316.9L766.7,319L764.2,319.4L762,318.3L756.5,320.7L755,322.1L752.3,326.9L752.8,331.1L752.1,332.9L748.3,338L746.8,338.6L742.9,343.9L739.9,346.9L736.8,349L734.6,353L730.7,356.5L729.6,359.7L727,364.3L726,369.2L725.8,373.7L724.9,375.9L725.2,377.8L724.5,380.2L725.2,382.3L724.9,384.3L726.5,387.4L726.5,389L730,397.8L731.8,401.2L736.2,408.2L741.2,414.4L744.1,417.4L745.9,421L745.1,424.3L746,426.8L750.1,432.9L752.8,438.3L755.6,442.6L758.9,449.5L759.8,455.2L760.1,464.2L761.2,474.5L760.3,477.9L761,479.8L760.3,482.4L758.9,483.6L757.9,486.8L755.5,487.9L751,492.1L747.4,494.4L746.2,496.2L742.6,496.9L741.5,498.4L732.3,502.1L731,502.3L727.6,501.1L724.1,500.7L722.3,498.2L723.1,494.7L724.4,493.5L727.7,493L729.7,492.1L736.9,486.5L738.7,486.1L737.5,484L737.3,480.9L735.9,478.8L733.3,476.5L731.5,476.8L728.3,475.8L726,472.9L723.6,466.7L721.9,466.8L718.1,465.1L715,460L714.8,458.5L711.8,454.6L710,451.8L706.7,448.2L704.7,445.1L704.3,442.3L702.7,440.4L701.3,432L703.1,427.5L703.1,425.6L701.1,420.1L698.6,420.2L695.7,418.4L693.3,414.4L689.6,411.3L689,409.4L686.5,407.6L685.4,405.6L681.5,404.1L679.3,406.8L676.5,407.9L671.9,412.1L667.3,414.7L665.2,414.8L662.8,413.8L660.3,414L657.2,411.5Z"></path>
  <path id="America/Nome" d="M101.5,471.9L101.9,469.5L104.6,470.8L103,472.7ZM99.6,466.9L100.5,465.3L102.1,465.1L103.8,466.5L103.6,467.8L100.9,468.8ZM97.4,444.4L97.5,441.1L99.6,441.4L100,443.1L101.7,445.2L100.4,446.6L97.3,446.1ZM118.8,417.6L120.6,417.4L120.3,419.9L118.4,418.6ZM116.7,429.7L115.3,431.5L111.6,431.6L109.2,427.8L107.7,428.2L106,426.9L105.9,424.5L107.9,422.3L109.9,424.1L112.3,424.1L113.6,426.2L116.5,427.8ZM127.9,490.6L126,491.8L123.3,490.4L123.3,489.1L120.4,488.9L117.2,491.7L113.4,491.6L113.2,492.3L109.3,494.7L98.2,497L97.2,496.4L98.5,493.6L103.8,490.3L103.8,488.2L105.1,487.9L106,489.4L105.1,490.6L106.2,491.5L108.1,488.7L111.1,488.7L114.2,487.4L115.8,488L116,486.6L118.7,484.2L123.3,483.5L124.2,481.3L125.6,482L129.2,479.3ZM131.1,464.1L129.5,462.8L130.9,461L130.3,458.4L131.2,456.7L130.1,455.6L124.9,455.9L123.3,452.4L121.3,453.8L118.5,454.6L115.2,452.3L113.9,449.5L115.2,448.1L122.1,447L119.9,443.3L119.5,441.4L121.3,437.3L123,436.2L124.8,433.8L124.8,431.7L127.8,430.5L129.7,430.5L131.4,431.8L132.1,429.4L133.3,428.5L135.3,429.1ZM135.7,425.8L133.2,426.5L131.1,424.6L127,424.8L123,423.3L121.8,417.4L119.4,415.2L117.9,414.8L118.7,411.7L120,412.9L126.9,409.8L131.2,408.7L133.4,409L134.8,410L134.3,411.9L136.4,411.7L134.8,409L132,407.1L131.9,404.2L127.8,399.4L126,397.9L127.6,396.3L128.5,393.6L133.8,393.8L135.8,392L136.9,388.9L139,386.5L140.6,385.6Z"></path>
  <path id="America/North_Dakota/Beulah" d="M410,81.1L410.6,81.3L410.8,81.3L414.8,82.8L419.8,81.9L419.6,83.4L420.7,87L421.7,87.5L421.7,87.9L415.2,87.6L414.9,92.4L410.7,92.1L410.1,92.1L410.5,85.7L409.7,85.6Z"></path>
  <path id="America/North_Dakota/Center" d="M421.7,87.5L424.4,87.2L426.3,91.9L425.5,93L414.9,92.4L415.2,87.6L421.7,87.9Z"></path>
  <path id="America/North_Dakota/New_Salem" d="M423.4,105.9L423.5,104.3L420.2,104.1L420.5,99.3L415.1,98.9L415.3,97.3L410.4,97L410.7,92.1L414.9,92.4L425.5,93L427.7,99.1L429.9,100.4L429.4,103.5L425.6,103.7Z"></path>
  <path id="America/Phoenix" d="M279.4,288.4L278.9,292.1L276.7,291.7L276.8,293.1L274.6,292.5L274.8,293.9L267.7,292.8L265.3,292.8L263.7,291.6L265.9,278L267.7,278.4L268.6,276.5L272.4,277.3L276.4,276.8L274.5,279.3L273.7,281.5L271.8,281.6L270.8,283.4L274,283.8L279.3,286.9ZM277.5,290.9L277.1,288.8L275.6,290.2ZM262.3,280.4L264.3,280.4L262.9,283.6L261.4,283.3L260.9,281.1ZM281.9,374.5L250.1,369.8L219.8,352.2L195.9,337.8L196.4,335.5L198.1,334L201.3,333.9L202.8,331.3L202.3,328.9L200.2,328.4L199.7,327.1L200.8,323.9L200.6,321.4L201.8,321.4L204.2,319.2L205.1,316.6L205.4,312.3L207.5,309.6L212.7,307.3L212.3,305.6L210.2,303.2L209.2,297.9L207.4,294.5L208,290.4L209.4,289.3L209.5,285.5L209,282.8L210.4,271.5L213,271.1L215.9,271.8L217.4,274.6L218.6,274.6L220.9,271.7L223.6,256.8L237.1,259.4L262.9,263.8L261.4,266L258.5,266.2L254.2,271.8L253.5,275.4L254.5,277.6L253.8,281.3L254.6,281.9L254.1,286.3L253.1,287.6L255.8,288.6L256.4,286.5L259.7,287L259.1,289L260,292L259,298.4L264.1,298.9L283.1,301.8L283.4,300.2L289.7,301.6L289.5,302.8L291.8,303.1Z"></path>
  <path id="America/Sitka" d="M217.1,462L219.9,461.1L220,460L222.7,460.8L224,460.3L226.6,465.8L227.8,463.5L230.2,462.2L232,460.3L233.1,460.4L236.4,464.5L243.4,465.3L244.1,467.5L245.8,470.3L244.8,474.6L234.2,478.8L232.7,476.2L230.9,474.6L230.5,472.9L228,473.2L227.1,471.4L224.5,469.1L220.7,466.6L219.9,464.3ZM240.3,473.5L240.3,473.5L240.3,473.5Z"></path>
  <path id="America/Yakutat" d="M211,457.4L210.1,456.5L202.9,453.9L200.9,454L200,449.2L203.4,449.4L206,447.6L206,449.4L212.4,453.6L213.2,455.7ZM198.1,440L198.2,440L198.1,440Z"></path>
  <path id="Pacific/Honolulu" d="M251,440.4L253,440.6L253.3,438.8L256.5,434.9L258.7,433.6L261.9,434.4L264,432L268.4,430L272.8,430.1L274.8,431L276.5,432.9L277.2,435L276.5,439.5L273.8,442.9L270.8,444.1L267.4,443.6L263.2,441.4L259.4,445.2L257.6,445.7L255.3,445L253.9,447.2L251,447.9ZM338.5,468.5L345.2,471.2L349.8,475L352.9,480.1L355.2,481.8L356,483.8L354.9,487.2L351.1,490.5L347.3,492.4L345.1,492.8L342.9,494.2L340.2,497.8L338.1,499.1L335.2,498.9L331.4,496.4L329,492.6L329.4,488.1L328.1,484.6L326.6,481.9L326.9,477.8L329.7,474.8L329,471.3L330.3,468L332.7,466.6L337,467.3ZM301.3,455.6L298.6,455.7L296.7,454.8L294,455L291,453.3L287.4,446.8L287.7,444.3L289.5,442.5L292,442.1L295.4,439.8L298.7,440.4L301.8,444.3L303.9,445.6L305.9,450.5L308,449.5L314.7,449L319,449.9L320.6,450.7L324.3,454.1L327.9,454.3L333.1,457.5L335.1,460.4L334.8,463.9L332.3,466.4L325.6,468.2L322.5,469.4L319.2,469.7L316,468.1L315,465.4L313.4,465.3L310.9,463.6L308.6,458.8L306.8,458.5L304.6,456.5L304.4,454.1Z"></path>
</svg>
